<svg width="24" height="30" viewBox="0 0 24 30" fill="none" xmlns="http://www.w3.org/2000/svg">
<path d="M19.9991 15.9119C19.9665 12.2888 22.9665 10.5261 23.1037 10.444C21.4046 7.96752 18.7712 7.62915 17.8458 7.60217C15.634 7.36947 13.4885 8.9253 12.3618 8.9253C11.2126 8.9253 9.4776 7.62465 7.60763 7.66287C5.20131 7.69997 2.95016 9.0928 1.71551 11.2557C-0.832496 15.6657 1.06783 22.1465 3.50901 25.7112C4.73016 27.4581 6.15709 29.4062 8.0248 29.3377C9.85204 29.2635 10.5346 28.1742 12.7396 28.1742C14.9244 28.1742 15.5654 29.3377 17.4702 29.2938C19.4312 29.2635 20.6659 27.5402 21.8443 25.7786C23.2555 23.7787 23.8222 21.807 23.8447 21.7058C23.7997 21.6901 20.0373 20.2534 19.9991 15.9119ZM16.4008 5.25719C17.3836 4.02849 18.056 2.35687 17.8694 0.660522C16.4469 0.723475 14.6681 1.64416 13.6437 2.84588C12.7374 3.90483 11.9278 5.64052 12.1369 7.27279C13.7348 7.39195 15.3753 6.46677 16.4008 5.25719Z" fill="#010101"/>
</svg>
