<svg width="18" height="18" viewBox="0 0 18 18" fill="none" xmlns="http://www.w3.org/2000/svg">
<path d="M9.85661 0.519043C10.7941 0.521543 11.2699 0.526543 11.6808 0.53821L11.8424 0.544043C12.0291 0.55071 12.2133 0.559043 12.4358 0.569043C13.3224 0.61071 13.9274 0.75071 14.4583 0.956543C15.0083 1.16821 15.4716 1.45488 15.9349 1.91738C16.3589 2.33382 16.6868 2.83777 16.8958 3.39404C17.1016 3.92488 17.2416 4.52988 17.2833 5.41738C17.2933 5.63904 17.3016 5.82321 17.3083 6.01071L17.3133 6.17238C17.3258 6.58238 17.3308 7.05821 17.3324 7.99571L17.3333 8.61738V9.70904C17.3353 10.3169 17.3289 10.9247 17.3141 11.5324L17.3091 11.694C17.3024 11.8815 17.2941 12.0657 17.2841 12.2874C17.2424 13.1749 17.1008 13.779 16.8958 14.3107C16.6868 14.867 16.3589 15.3709 15.9349 15.7874C15.5185 16.2113 15.0146 16.5392 14.4583 16.7482C13.9274 16.954 13.3224 17.094 12.4358 17.1357L11.8424 17.1607L11.6808 17.1657C11.2699 17.1774 10.7941 17.1832 9.85661 17.1849L9.23494 17.1857H8.14411C7.536 17.1879 6.92788 17.1815 6.31995 17.1665L6.15828 17.1615C5.96045 17.1541 5.76267 17.1454 5.56494 17.1357C4.67828 17.094 4.07328 16.954 3.54161 16.7482C2.98564 16.5391 2.48198 16.2112 2.06578 15.7874C1.64157 15.371 1.31337 14.8671 1.10411 14.3107C0.898278 13.7799 0.758278 13.1749 0.716612 12.2874L0.691612 11.694L0.687445 11.5324C0.672083 10.9247 0.665138 10.3169 0.666612 9.70904V7.99571C0.664305 7.38788 0.670417 6.78004 0.684945 6.17238L0.690778 6.01071C0.697445 5.82321 0.705778 5.63904 0.715778 5.41738C0.757445 4.52988 0.897445 3.92571 1.10328 3.39404C1.31302 2.83754 1.6418 2.33357 2.06661 1.91738C2.48257 1.49367 2.98593 1.16577 3.54161 0.956543C4.07328 0.75071 4.67744 0.61071 5.56494 0.569043C5.78661 0.559043 5.97161 0.55071 6.15828 0.544043L6.31995 0.539043C6.92761 0.524237 7.53544 0.517847 8.14328 0.519876L9.85661 0.519043ZM8.99994 4.68571C7.89488 4.68571 6.83507 5.1247 6.05367 5.9061C5.27226 6.6875 4.83328 7.74731 4.83328 8.85238C4.83328 9.95745 5.27226 11.0173 6.05367 11.7987C6.83507 12.5801 7.89488 13.019 8.99994 13.019C10.105 13.019 11.1648 12.5801 11.9462 11.7987C12.7276 11.0173 13.1666 9.95745 13.1666 8.85238C13.1666 7.74731 12.7276 6.6875 11.9462 5.9061C11.1648 5.1247 10.105 4.68571 8.99994 4.68571ZM8.99994 6.35238C9.32825 6.35232 9.65335 6.41693 9.95669 6.54252C10.26 6.6681 10.5356 6.85221 10.7678 7.08431C11 7.31642 11.1842 7.59199 11.3099 7.89528C11.4356 8.19858 11.5003 8.52365 11.5004 8.85196C11.5004 9.18026 11.4358 9.50537 11.3102 9.8087C11.1846 10.112 11.0005 10.3877 10.7684 10.6198C10.5363 10.852 10.2607 11.0362 9.95745 11.1619C9.65416 11.2876 9.32908 11.3523 9.00078 11.3524C8.33774 11.3524 7.70185 11.089 7.23301 10.6201C6.76417 10.1513 6.50078 9.51542 6.50078 8.85238C6.50078 8.18933 6.76417 7.55345 7.23301 7.08461C7.70185 6.61577 8.33774 6.35238 9.00078 6.35238M13.3758 3.43571C13.0995 3.43571 12.8346 3.54546 12.6392 3.74081C12.4439 3.93616 12.3341 4.20111 12.3341 4.47738C12.3341 4.75364 12.4439 5.0186 12.6392 5.21395C12.8346 5.4093 13.0995 5.51904 13.3758 5.51904C13.652 5.51904 13.917 5.4093 14.1123 5.21395C14.3077 5.0186 14.4174 4.75364 14.4174 4.47738C14.4174 4.20111 14.3077 3.93616 14.1123 3.74081C13.917 3.54546 13.652 3.43571 13.3758 3.43571Z" fill="#FCFCFC"/>
</svg>
