<svg width="16" height="16" viewBox="0 0 16 16" fill="none" xmlns="http://www.w3.org/2000/svg">
<path d="M3.38973 2.02004C3.38951 2.46207 3.2137 2.8859 2.90099 3.19831C2.58827 3.51071 2.16426 3.68609 1.72223 3.68587C1.2802 3.68565 0.856367 3.50984 0.543963 3.19713C0.231558 2.88441 0.0561757 2.4604 0.0563967 2.01837C0.0566177 1.57635 0.232424 1.15251 0.545141 0.840105C0.857858 0.527701 1.28187 0.352318 1.7239 0.352539C2.16592 0.35276 2.58976 0.528567 2.90216 0.841284C3.21457 1.154 3.38995 1.57801 3.38973 2.02004ZM3.43973 4.92004H0.106397V15.3534H3.43973V4.92004ZM8.7064 4.92004H5.38973V15.3534H8.67306V9.87837C8.67306 6.82837 12.6481 6.54504 12.6481 9.87837V15.3534H15.9397V8.74504C15.9397 3.60337 10.0564 3.79504 8.67306 6.32004L8.7064 4.92004Z" fill="white"/>
</svg>
